<?xml version="1.0" encoding="utf-8"?>
<!DOCTYPE svg PUBLIC "-//W3C//DTD SVG 1.1//EN" "http://www.w3.org/Graphics/SVG/1.1/DTD/svg11.dtd">

<svg version="1.1" id="octapad" xmlns="http://www.w3.org/2000/svg" xmlns:xlink="http://www.w3.org/1999/xlink" x="0px" y="0px" viewBox="0 0 340 195" style="enable-background:new 0 0 340 195;" xml:space="preserve">

<style type="text/css">
	.st0{fill:none;stroke:#FFFFFF;stroke-miterlimit:10;}
	.st1{fill:#FFFFFF;}
</style>

<g id="case">
	<path id="frame" style="fill:black; stroke:#FFFFFF; stroke-miterlimit:10;" d="M333.2,192.9H6.7c-2.6,0-4.7-2.1-4.7-4.7V6.8C2,4.1,4,2,6.7,2h326.6c2.6,0,4.7,2.1,4.7,4.7v181.6 C338,190.9,335.8,192.9,333.2,192.9z"/>
	<path id="pads-zone" class="st0" d="M267,178.8H15.5c-2.3,0-4.1-1.8-4.1-4.1V30.3c0-2.3,1.8-4.1,4.1-4.1h251.4 c2.3,0,4.1,1.8,4.1,4.1v144.3C271,176.9,269.2,178.8,267,178.8z"/>
	<path id="controls-zone" class="st0" d="M324.8,178.8h-46.1c-2.3,0-4.1-1.8-4.1-4.1V30.3c0-2.3,1.8-4.1,4.1-4.1H325 c2.3,0,4.1,1.8,4.1,4.1v144.3C329,176.9,327.2,178.8,324.8,178.8z"/>
	<line id="separator" class="st0" x1="274.5" y1="102.4" x2="329" y2="102.4"/>
</g>

<g id="pads">
	<path id="pad1" style="stroke:#FFFFFF; stroke-miterlimit:10;" d="M73.5,100.2h-55c-1,0-1.9-0.8-1.9-1.9v-65c0-1,0.8-1.9,1.9-1.9h54.9c1,0,1.9,0.8,1.9,1.9v65.1 C75.3,99.3,74.5,100.2,73.5,100.2z"/>
	<path id="pad2" style="stroke:#FFFFFF; stroke-miterlimit:10;" d="M137,100.2H82c-1,0-1.9-0.8-1.9-1.9v-65c0-1,0.8-1.9,1.9-1.9h55c1,0,1.9,0.8,1.9,1.9v65.1 C138.8,99.3,138,100.2,137,100.2z"/>
	<path id="pad3" style="stroke:#FFFFFF; stroke-miterlimit:10;" d="M200.5,100.2h-54.9c-1,0-1.9-0.8-1.9-1.9v-65c0-1,0.8-1.9,1.9-1.9h54.9c1,0,1.9,0.8,1.9,1.9v65.1 C202.5,99.3,201.5,100.2,200.5,100.2z"/>
	<path id="pad4" style="stroke:#FFFFFF; stroke-miterlimit:10;" d="M264.2,100.2h-54.9c-1,0-1.9-0.8-1.9-1.9v-65c0-1,0.8-1.9,1.9-1.9h54.9c1,0,1.9,0.8,1.9,1.9v65.1 C266,99.3,265.2,100.2,264.2,100.2z"/>
	<path id="pad5" style="stroke:#FFFFFF; stroke-miterlimit:10;" d="M73.5,173.9h-55c-1,0-1.9-0.8-1.9-1.9v-65c0-1,0.8-1.9,1.9-1.9h54.9c1,0,1.9,0.8,1.9,1.9v65.1 C75.3,173.1,74.5,173.9,73.5,173.9z"/>
	<path id="pad6" style="stroke:#FFFFFF; stroke-miterlimit:10;" d="M137,173.9H82c-1,0-1.9-0.8-1.9-1.9v-65c0-1,0.8-1.9,1.9-1.9h55c1,0,1.9,0.8,1.9,1.9v65.1 C138.8,173.1,138,173.9,137,173.9z"/>
	<path id="pad7" style="stroke:#FFFFFF; stroke-miterlimit:10;" d="M200.5,173.9h-54.9c-1,0-1.9-0.8-1.9-1.9v-65c0-1,0.8-1.9,1.9-1.9h54.9c1,0,1.9,0.8,1.9,1.9v65.1 C202.5,173.1,201.5,173.9,200.5,173.9z"/>
	<path id="pad8" style="stroke:#FFFFFF; stroke-miterlimit:10;" d="M264.2,173.9h-54.9c-1,0-1.9-0.8-1.9-1.9v-65c0-1,0.8-1.9,1.9-1.9h54.9c1,0,1.9,0.8,1.9,1.9v65.1 C266,173.1,265.2,173.9,264.2,173.9z"/>
</g>

<g id="details">
	<g id="banks-numbers-buttons">
		<path class="st0" d="M299.8,159.9H281c-0.6,0-1-0.5-1-1v-10c0-0.6,0.5-1,1-1h18.8c0.6,0,1,0.5,1,1v10 C300.8,159.4,300.3,159.9,299.8,159.9z"/>
		<path class="st0" d="M322.8,159.9H304c-0.6,0-1-0.5-1-1v-10c0-0.6,0.5-1,1-1h18.8c0.6,0,1,0.5,1,1v10 C323.8,159.4,323.2,159.9,322.8,159.9z"/>
		<path class="st0" d="M299.8,174.2H281c-0.6,0-1-0.5-1-1v-10c0-0.6,0.5-1,1-1h18.8c0.6,0,1,0.5,1,1v10 C300.8,173.8,300.3,174.2,299.8,174.2z"/>
		<path class="st0" d="M322.8,174.2H304c-0.6,0-1-0.5-1-1v-10c0-0.6,0.5-1,1-1h18.8c0.6,0,1,0.5,1,1v10 C323.8,173.8,323.2,174.2,322.8,174.2z"/>
	</g>
	<g id="edit-arrows">
		<path class="st0" d="M300,133.4h-19.3c-0.4,0-0.8-0.3-0.8-0.8v-5.3c0-0.4,0.3-0.8,0.8-0.8H300c0.4,0,0.8,0.3,0.8,0.8v5.3 C300.8,132.9,300.5,133.4,300,133.4z"/>
		<path class="st0" d="M323,133.4h-19.3c-0.4,0-0.8-0.3-0.8-0.8v-5.3c0-0.4,0.3-0.8,0.8-0.8H323c0.4,0,0.8,0.3,0.8,0.8v5.3 C323.8,132.9,323.3,133.4,323,133.4z"/>
		<path class="st0" d="M300,142.4h-19.3c-0.4,0-0.8-0.3-0.8-0.8v-5.3c0-0.4,0.3-0.8,0.8-0.8H300c0.4,0,0.8,0.3,0.8,0.8v5.3 C300.8,142.1,300.5,142.4,300,142.4z"/>
		<path class="st0" d="M323,142.4h-19.3c-0.4,0-0.8-0.3-0.8-0.8v-5.3c0-0.4,0.3-0.8,0.8-0.8H323c0.4,0,0.8,0.3,0.8,0.8v5.3 C323.8,142.1,323.3,142.4,323,142.4z"/>
	</g>
	<g id="edit-buttons">
		<path class="st0" d="M288.7,113.1h-8c-0.4,0-0.7-0.3-0.7-0.7v-4.5c0-0.4,0.3-0.7,0.7-0.7h8c0.4,0,0.7,0.3,0.7,0.7v4.5 C289.5,112.8,289,113.1,288.7,113.1z"/>
		<path class="st0" d="M300.2,113.1h-8c-0.4,0-0.7-0.3-0.7-0.7v-4.5c0-0.4,0.3-0.7,0.7-0.7h8c0.4,0,0.7,0.3,0.7,0.7v4.5 C300.8,112.8,300.5,113.1,300.2,113.1z"/>
		<path class="st0" d="M311.5,113.1h-8c-0.4,0-0.7-0.3-0.7-0.7v-4.5c0-0.4,0.3-0.7,0.7-0.7h8c0.4,0,0.7,0.3,0.7,0.7v4.5 C312.2,112.8,312,113.1,311.5,113.1z"/>
		<path class="st0" d="M323,113.1h-8c-0.4,0-0.7-0.3-0.7-0.7v-4.5c0-0.4,0.3-0.7,0.7-0.7h8c0.4,0,0.7,0.3,0.7,0.7v4.5 C323.8,112.8,323.5,113.1,323,113.1z"/>
		<path class="st0" d="M288.7,121.1h-8c-0.4,0-0.7-0.3-0.7-0.7v-4.5c0-0.4,0.3-0.7,0.7-0.7h8c0.4,0,0.7,0.3,0.7,0.7v4.5 C289.5,120.9,289,121.1,288.7,121.1z"/>
		<path class="st0" d="M300.2,121.1h-8c-0.4,0-0.7-0.3-0.7-0.7v-4.5c0-0.4,0.3-0.7,0.7-0.7h8c0.4,0,0.7,0.3,0.7,0.7v4.5 C300.8,120.9,300.5,121.1,300.2,121.1z"/>
		<path class="st0" d="M311.5,121.1h-8c-0.4,0-0.7-0.3-0.7-0.7v-4.5c0-0.4,0.3-0.7,0.7-0.7h8c0.4,0,0.7,0.3,0.7,0.7v4.5 C312.2,120.9,312,121.1,311.5,121.1z"/>
		<path class="st0" d="M323,121.1h-8c-0.4,0-0.7-0.3-0.7-0.7v-4.5c0-0.4,0.3-0.7,0.7-0.7h8c0.4,0,0.7,0.3,0.7,0.7v4.5 C323.8,120.9,323.5,121.1,323,121.1z"/>
	</g>
	<g id="displays">
		<rect x="283.2" y="56.7" class="st0" width="36.9" height="8.1"/>
		<rect x="283.2" y="88.4" class="st0" width="17.1" height="6.2"/>
		<rect x="283.2" y="80.2" class="st0" width="17.1" height="6.2"/>
		<rect x="283.2" y="71.9" class="st0" width="17.1" height="6.2"/>
		<rect x="302.5" y="71.9" class="st0" width="17.1" height="22.6"/>
		<rect x="302.5" y="78.7" class="st0" width="17.1" height="9.3"/>
	</g>
	<g id="pad-80">
		<path class="st1" d="M314.2,46.4L314.2,46.4l-0.1-3.1l0.1-0.1h4.5l0.1,0.1v3l-0.1,0.1H314.2 M319,42.3h-5c-0.5,0-0.9,0.4-0.9,0.9 v3.2c0,0.5,0.4,0.9,0.9,0.9h5c0.5,0,0.9-0.4,0.9-0.9v-3.2C319.8,42.8,319.5,42.3,319,42.3"/>
		<path class="st1" d="M288.5,42.3h-5.4v0.9h5.2l0.1,0.1v0.8l-0.1,0.1h-5.2v3.1h1V45h4.4c0.5,0,0.9-0.4,0.9-0.9v-1 C289.5,42.8,289,42.3,288.5,42.3"/>
		<path class="st1" d="M290.8,45.7l1.4-2.2l0.1-0.1l0.1,0.1l1.4,2.2H290.8 M292.2,42.3c-0.3,0-0.6,0.2-0.8,0.5l-3,4.6h1.2l0.6-0.9h4 l0.6,0.9h1.2l-3-4.6C293,42.4,292.7,42.3,292.2,42.3"/>
		<path class="st1" d="M302,42.3h-5.4v0.9h5.2l0.1,0.1v3l-0.1,0.1h-4.2v-2.2h-1v3.1h5.4c0.5,0,0.9-0.4,0.9-0.9v-3.2 C302.8,42.8,302.5,42.3,302,42.3"/>
		<rect x="303.8" y="44.2" class="st1" width="1.9" height="0.9"/>
		<path class="st1" d="M311.8,42.3h-4.6c-0.4,0-0.8,0.4-0.8,0.9v3.2c0,0.5,0.4,0.9,0.8,0.9h4.6c0.4,0,0.8-0.4,0.8-0.9v-3.2 C312.5,42.8,312.2,42.3,311.8,42.3z M311.7,46.3L311.7,46.3l-4.2,0.1l-0.1-0.1v-1.2h4.3L311.7,46.3L311.7,46.3z M311.7,44.2h-4.3 v-0.9l0.1-0.1h4.1l0.1,0.1L311.7,44.2L311.7,44.2z"/>
	</g>
	<g id="roland">
		<path class="st1" d="M318.2,31.7h-0.7c0,0-0.3,0-0.3,0.3v2c0,0.1,0,0.2-0.1,0.2c0,0,0,0-0.1,0c-0.5-0.4-1.1-0.6-1.7-0.6 c-1.5,0-2.9,1.1-2.9,2.6c0,1.6,1.3,2.7,2.8,2.7c0.6,0,1.2-0.2,1.8-0.6c0,0,0,0,0.1,0s0.1,0.1,0.1,0.2c0,0,0,0.3,0.3,0.3h0.7
			c0,0,0.3,0,0.3-0.3V32C318.5,31.7,318.2,31.7,318.2,31.7z M315.5,37.8c-1,0-1.7-0.8-1.7-1.7c0-1,0.8-1.7,1.7-1.7 c1,0,1.7,0.7,1.7,1.7C317.2,37.2,316.5,37.8,315.5,37.8z"/>
		<path class="st1" d="M307.8,34.2c0.5-0.4,1.2-0.6,2-0.6s1.9,0.8,1.9,2.1v2.8c0,0.3-0.3,0.3-0.3,0.3h-0.7c0,0-0.3,0-0.3-0.3v-2.9 c0-0.4-0.2-1.1-1.1-1.1c-1.4,0-1.8,1.1-1.8,1.7v2.2c0,0,0,0.3-0.3,0.3h-0.7c0,0-0.3,0-0.3-0.3v-4.6c0-0.3,0.3-0.3,0.3-0.3h0.7 c0.3,0,0.3,0.3,0.3,0.3v0.3L307.8,34.2"/>
		<path class="st1" d="M302.8,33.5c-1.3,0-2.1,0.5-2.5,1.5l0.2,0.2h0.9c0.1,0,0.3-0.1,0.3-0.2c0.2-0.4,0.6-0.5,1.3-0.5 c0.8,0,1,0.2,1.2,0.5c0.2,0.2-0.1,0.5-0.2,0.5c-1.8,0.1-2.1,0.2-2.6,0.2c-0.7,0.1-1.3,0.8-1.2,1.5c0,0.5,0.2,0.9,0.7,1.3
			c0.4,0.3,0.9,0.4,1.4,0.4c0.7,0,1.4-0.2,1.8-0.6l0.2,0.1c0.1,0.2,0.2,0.3,0.4,0.3h0.5c0.3,0,0.3-0.3,0.3-0.3v-2.9 C305.5,33.8,304,33.5,302.8,33.5z M302.5,37.8c-0.4,0-0.7-0.1-0.9-0.2c-0.1-0.1-0.2-0.3-0.2-0.4c0-0.2,0.1-0.4,0.3-0.5
			c0.5-0.2,1.4-0.3,2-0.3c0.2,0,0.3,0,0.4,0l0.2,0.2C304.2,37.4,303.3,37.8,302.5,37.8z"/>
		<path class="st1" d="M298.3,38.7c-0.3,0-0.3-0.3-0.3-0.3v-6.5c0,0,0-0.3,0.3-0.3h0.8c0.3,0,0.3,0.3,0.3,0.3v6.5c0,0,0,0.3-0.3,0.3 H298.3"/>
		<path class="st1" d="M294.2,33.5c-2.3,0-3.2,1.5-3.2,2.7c0,1.3,1,2.7,3.2,2.7s3.2-1.5,3.2-2.7C297.5,35,296.5,33.5,294.2,33.5z M294.2,37.8c-1.3,0-1.9-1-1.9-1.7s0.6-1.7,1.9-1.7s1.9,1,1.9,1.7C296.2,36.9,295.5,37.8,294.2,37.8z"/>
		<path class="st1" d="M290.2,36.2c-0.1-0.5-0.1-0.7-0.5-1l0.1-0.1c0.5-0.4,0.9-0.9,0.9-1.6c0-1.3-1-1.9-2-1.9l0,0h-4.1 c0,0-0.3,0-0.3,0.3v6.5c0,0.3,0.3,0.3,0.3,0.3h0.6c0,0,0.3,0,0.3-0.3c0-0.5,0-1.9,0-2.6c0-0.3,0.3-0.3,0.3-0.3h2.1
			c0.4,0,0.7,0.1,0.8,0.3c0.6,0.8,0.4,1.7,0.7,2.6c0.1,0.2,0.2,0.3,0.5,0.3h0.8l0.1-0.2C290.3,37.8,290.3,37.1,290.2,36.2z M288.2,34.5h-2.5c0,0-0.3,0-0.3-0.3s0-1.4,0-1.4s0-0.3,0.3-0.3h2.5c0,0,1.1,0,1.1,1S288.2,34.5,288.2,34.5z"/>
	</g>
	<g id="octapad-logo">
		<path class="st1" d="M209.7,18.5l-0.3-0.3v-6.8l0.3-0.3H220l0.3,0.3v6.8l-0.3,0.3H209.7 M220.5,9.2H209c-1.1,0-2,0.9-2,2v7.4 c0,1.1,0.9,2,2,2h11.5c1.1,0,2-0.9,2-2v-7.4C222.5,10.2,221.7,9.2,220.5,9.2"/>
		<path class="st1" d="M237.7,9.2h-11.4c-1.1,0-2,0.9-2,2v7.4c0,1.1,0.9,2,2,2h11.4v-2.1h-10.8l-0.3-0.3v-6.7l0.3-0.3h10.8V9.2"/>
		<polygon class="st1" points="253.8,9.2 238.8,9.2 238.8,11.2 245,11.2 245,20.5 247.5,20.5 247.5,11.2 253.8,11.2 		"/>
		<path class="st1" d="M255,16.5l3.1-5l0.2-0.1l0.2,0.1l3.1,5H255 M258.3,9c-0.8,0-1.5,0.4-1.9,1.1l-6.7,10.4h2.8l1.3-2.1h9.1 l1.3,2.1h2.8L260.2,10C259.8,9.5,259.2,9,258.3,9"/>
		<path class="st1" d="M280.3,9.2h-12.4v2h11.8l0.3,0.3v1.7l-0.3,0.3H268v7.1h2.3v-5.2h10.1c1.1,0,2-0.9,2-2v-2.2 C282.3,10.2,281.5,9.2,280.3,9.2"/>
		<path class="st1" d="M285.5,16.5l3.1-5l0.2-0.1l0.2,0.1l3.1,5H285.5 M289,9c-0.8,0-1.5,0.4-1.9,1.1l-6.8,10.5h2.8l1.3-2.1h9.1 l1.3,2.1h2.8l-6.8-10.5C290.5,9.5,289.8,9,289,9"/>
		<path class="st1" d="M311,9.2h-12.4v2h11.8l0.3,0.3v6.8l-0.3,0.3h-9.5v-5h-2.3v7.1H311c1.1,0,2-0.9,2-2v-7.4 C313,10.2,312,9.2,311,9.2"/>
		<path class="st1" d="M326.5,11.2h1.6v-2h-10.7v2h1.9v7.4h-1.9v2h1.9l0,0h2.4l0,0h2.1h2.5h1.7v-2h-1.7v-7.4	C326.3,11.2,326.5,11.2,326.5,11.2z M321.8,18.5v-7.4h0.3h1.9v7.4H321.8z"/>
	</g>
</g>
</svg>
